<svg width="41" height="44" viewBox="0 0 41 44" fill="none" xmlns="http://www.w3.org/2000/svg">
<path d="M19.9672 1V15.7H34.7194" stroke="#242424" stroke-width="2" stroke-linecap="round" stroke-linejoin="round"/>
<path d="M34.7195 36.7V41C34.7195 42.1046 33.824 43 32.7195 43H28.3971M17.8597 43H3C1.89543 43 1 42.1046 1 41V3C1 1.89543 1.89543 1 3 1H19.9672L34.7195 15.7V19.9" stroke="#242424" stroke-width="2" stroke-linecap="round"/>
<path d="M35.2468 24.7519C35.666 24.3342 36.2345 24.0995 36.8274 24.0995C37.1209 24.0995 37.4116 24.1571 37.6828 24.269C37.954 24.381 38.2004 24.545 38.408 24.7519C38.6155 24.9587 38.7802 25.2043 38.8925 25.4745C39.0049 25.7447 39.0627 26.0344 39.0627 26.3269C39.0627 26.6194 39.0049 26.909 38.8925 27.1793C38.7802 27.4495 38.6155 27.695 38.408 27.9019L25.2363 41.0269L21.0214 42.0769L22.0751 37.8769L35.2468 24.7519Z" stroke="#242424" stroke-width="2" stroke-linecap="round" stroke-linejoin="round"/>
</svg>
