<svg width="42" height="42" viewBox="0 0 42 42" fill="none" xmlns="http://www.w3.org/2000/svg">
<path d="M21.2632 28.875V32.55" stroke="#242424" stroke-width="2" stroke-linecap="round" stroke-linejoin="round"/>
<path d="M12.5132 38.5H30.0132V36.75C30.0132 34.825 28.4382 33.25 26.5132 33.25H16.0132C14.0882 33.25 12.5132 34.825 12.5132 36.75V38.5V38.5Z" stroke="#242424" stroke-width="2" stroke-miterlimit="10"/>
<path d="M10.7632 38.5H31.7632" stroke="#242424" stroke-width="2" stroke-linecap="round" stroke-linejoin="round"/>
<path d="M21 28C14.2275 28 8.75 22.5225 8.75 15.75V10.5C8.75 6.6325 11.8825 3.5 15.75 3.5H26.25C30.1175 3.5 33.25 6.6325 33.25 10.5V15.75C33.25 22.5225 27.7725 28 21 28Z" stroke="#242424" stroke-width="2" stroke-linecap="round" stroke-linejoin="round"/>
<path d="M9.57086 20.3868C8.25836 19.9668 7.10336 19.1968 6.19336 18.2868C4.61836 16.5368 3.56836 14.4368 3.56836 11.9868C3.56836 9.53682 5.49336 7.61182 7.94336 7.61182H9.08086C8.73086 8.41682 8.55586 9.30932 8.55586 10.2368V15.4868C8.55586 17.2368 8.92336 18.8818 9.57086 20.3868Z" stroke="#242424" stroke-width="2" stroke-linecap="round" stroke-linejoin="round"/>
<path d="M32.4263 20.3868C33.7388 19.9668 34.8938 19.1968 35.8038 18.2868C37.3788 16.5368 38.4288 14.4368 38.4288 11.9868C38.4288 9.53682 36.5038 7.61182 34.0538 7.61182H32.9163C33.2663 8.41682 33.4413 9.30932 33.4413 10.2368V15.4868C33.4413 17.2368 33.0738 18.8818 32.4263 20.3868Z" stroke="#242424" stroke-width="2" stroke-linecap="round" stroke-linejoin="round"/>
</svg>
