<svg width="386" height="295" viewBox="0 0 386 295" fill="none" xmlns="http://www.w3.org/2000/svg">
<g opacity="0.8">
<path d="M14.5826 98.8781L98.4557 14.7073C107.838 5.29218 120.582 0 133.874 0H361C374.807 0 386 11.1929 386 25.0001L385.999 160.829C385.999 174.06 380.756 186.75 371.417 196.122L287.544 280.293C278.162 289.708 265.418 295 252.126 295H25C11.1928 295 -7.68997e-05 283.807 -2.1179e-05 270L0.000526979 134.171C0.000580371 120.94 5.24412 108.25 14.5826 98.8781Z" fill="#E85002"/>
<path d="M14.5826 98.8781L98.4557 14.7073C107.838 5.29218 120.582 0 133.874 0H361C374.807 0 386 11.1929 386 25.0001L385.999 160.829C385.999 174.06 380.756 186.75 371.417 196.122L287.544 280.293C278.162 289.708 265.418 295 252.126 295H25C11.1928 295 -7.68997e-05 283.807 -2.1179e-05 270L0.000526979 134.171C0.000580371 120.94 5.24412 108.25 14.5826 98.8781Z" fill="url(#paint0_linear_0_14595)"/>
<path d="M14.5826 98.8781L98.4557 14.7073C107.838 5.29218 120.582 0 133.874 0H361C374.807 0 386 11.1929 386 25.0001L385.999 160.829C385.999 174.06 380.756 186.75 371.417 196.122L287.544 280.293C278.162 289.708 265.418 295 252.126 295H25C11.1928 295 -7.68997e-05 283.807 -2.1179e-05 270L0.000526979 134.171C0.000580371 120.94 5.24412 108.25 14.5826 98.8781Z" fill="url(#paint1_radial_0_14595)" fill-opacity="0.75" style="mix-blend-mode:lighten"/>
<path d="M14.5826 98.8781L98.4557 14.7073C107.838 5.29218 120.582 0 133.874 0H361C374.807 0 386 11.1929 386 25.0001L385.999 160.829C385.999 174.06 380.756 186.75 371.417 196.122L287.544 280.293C278.162 289.708 265.418 295 252.126 295H25C11.1928 295 -7.68997e-05 283.807 -2.1179e-05 270L0.000526979 134.171C0.000580371 120.94 5.24412 108.25 14.5826 98.8781Z" fill="url(#paint2_linear_0_14595)" style="mix-blend-mode:overlay"/>
</g>
<defs>
<linearGradient id="paint0_linear_0_14595" x1="199.71" y1="434.336" x2="199.71" y2="-99.4562" gradientUnits="userSpaceOnUse">
<stop offset="0.05" stop-color="#E85002"/>
<stop offset="1" stop-color="#F9F9F9"/>
</linearGradient>
<radialGradient id="paint1_radial_0_14595" cx="0" cy="0" r="1" gradientUnits="userSpaceOnUse" gradientTransform="translate(199.71 193.9) rotate(-90) scale(1358.21 224.438)">
<stop offset="0.139423" stop-color="#E85002"/>
<stop offset="1" stop-color="white"/>
</radialGradient>
<linearGradient id="paint2_linear_0_14595" x1="-61.7474" y1="528.054" x2="528.163" y2="363.002" gradientUnits="userSpaceOnUse">
<stop stop-color="#F9F9F9"/>
<stop offset="0.3" stop-color="#E85002"/>
<stop offset="0.6" stop-color="#C10801"/>
<stop offset="1" stop-color="#272727"/>
</linearGradient>
</defs>
</svg>
